<?xml version="1.0" standalone="no"?>
<!DOCTYPE svg PUBLIC "-//W3C//DTD SVG 20010904//EN"
 "http://www.w3.org/TR/2001/REC-SVG-20010904/DTD/svg10.dtd">
<svg version="1.0" xmlns="http://www.w3.org/2000/svg"
 width="691.000000pt" height="361.000000pt" viewBox="0 0 691.000000 361.000000"
 preserveAspectRatio="xMidYMid meet">

<g transform="translate(0.000000,361.000000) scale(0.100000,-0.100000)"
fill="#000000" stroke="none">
<path d="M1800 2195 l0 -1335 340 0 340 0 0 35 0 35 -305 0 -305 0 2 1263 3
1262 303 3 302 2 0 35 0 35 -340 0 -340 0 0 -1335z"/>
<path d="M5360 3495 l0 -35 645 0 645 0 0 35 0 35 -645 0 -645 0 0 -35z"/>
<path d="M360 2195 l0 -1295 35 0 35 0 0 1295 0 1295 -35 0 -35 0 0 -1295z"/>
<path d="M3340 2175 l0 -1315 835 0 835 0 0 1315 0 1315 -35 0 -35 0 0 -1280
0 -1280 -765 0 -765 0 0 1280 0 1280 -35 0 -35 0 0 -1315z"/>
<path d="M4055 2678 c-2 -7 -21 -65 -41 -128 -20 -63 -54 -167 -74 -230 -21
-63 -57 -176 -80 -250 -23 -74 -58 -181 -76 -238 -19 -56 -34 -107 -34 -112 0
-7 37 -10 102 -8 l102 3 18 70 c10 39 25 94 33 123 l16 53 157 -3 157 -3 18
-70 c10 -38 25 -94 33 -122 l15 -53 104 0 c58 0 105 2 105 5 0 6 -32 107 -125
395 -24 74 -62 196 -85 270 -24 74 -55 173 -69 220 l-27 85 -122 3 c-93 2
-123 -1 -127 -10z m173 -320 c24 -95 47 -187 52 -205 4 -18 5 -34 2 -37 -5 -6
-222 -9 -222 -3 0 1 13 47 29 103 16 55 38 145 50 200 27 120 30 129 38 120 3
-3 26 -84 51 -178z"/>
<path d="M5609 2673 c5 -10 25 -52 44 -93 55 -120 125 -266 188 -397 l59 -121
0 -181 0 -181 100 0 100 0 0 175 0 174 46 98 c26 54 82 171 125 260 43 90 81
173 85 185 3 12 15 35 25 52 11 17 19 35 19 39 0 4 -48 6 -106 5 l-105 -3 -41
-100 c-46 -117 -48 -122 -80 -200 -14 -33 -33 -82 -43 -108 -9 -27 -21 -45
-25 -40 -4 4 -16 33 -27 63 -40 107 -105 275 -118 305 -8 17 -18 43 -24 58
l-11 27 -110 0 c-102 0 -110 -1 -101 -17z"/>
<path d="M1010 2195 l0 -485 100 0 100 0 0 485 0 485 -100 0 -100 0 0 -485z"/>
<path d="M2220 2595 l0 -85 129 0 c108 0 130 -3 135 -16 3 -9 6 -189 6 -400
l0 -384 100 0 100 0 0 400 0 399 133 3 132 3 3 83 3 82 -371 0 -370 0 0 -85z"/>
<path d="M5360 895 l0 -35 645 0 645 0 0 35 0 35 -645 0 -645 0 0 -35z"/>
<path d="M1950 320 c0 -109 2 -130 15 -130 13 0 15 21 15 130 0 109 -2 130
-15 130 -13 0 -15 -21 -15 -130z"/>
<path d="M2339 423 c-6 -15 -19 -50 -29 -78 -10 -27 -27 -72 -39 -98 -25 -57
-25 -57 -8 -57 8 0 20 18 27 40 l13 40 54 0 c54 0 55 0 70 -40 9 -22 22 -40
30 -40 7 0 13 2 13 4 0 5 -28 74 -47 116 -9 19 -24 57 -34 84 -21 60 -35 68
-50 29z m46 -75 c8 -28 15 -53 15 -55 0 -2 -18 -3 -40 -3 -22 0 -40 4 -40 8 0
20 33 102 41 102 4 0 15 -23 24 -52z"/>
<path d="M3040 320 c0 -109 2 -130 15 -130 13 0 15 21 15 130 0 109 -2 130
-15 130 -13 0 -15 -21 -15 -130z"/>
<path d="M3884 432 c-46 -38 -35 -90 25 -117 62 -27 66 -31 69 -63 3 -27 -1
-32 -23 -38 -14 -4 -44 -4 -66 -1 -29 4 -39 2 -39 -9 0 -10 15 -14 58 -14 66
0 102 23 102 65 0 30 -20 49 -74 74 -51 22 -60 34 -52 67 6 22 11 24 61 24 56
0 73 13 33 24 -39 10 -72 6 -94 -12z"/>
<path d="M4280 320 c0 -109 2 -130 15 -130 13 0 15 21 15 130 0 109 -2 130
-15 130 -13 0 -15 -21 -15 -130z"/>
<path d="M4454 436 c-48 -21 -74 -65 -74 -125 0 -42 5 -56 31 -86 30 -34 33
-35 105 -35 l74 0 0 65 0 65 -40 0 c-45 0 -55 -17 -12 -22 24 -3 27 -7 27 -43
l0 -40 -58 0 c-74 1 -96 24 -97 100 0 40 5 56 26 78 24 26 31 28 85 25 39 -2
59 1 59 8 0 25 -78 31 -126 10z"/>
<path d="M4683 320 c-33 -85 -46 -130 -38 -130 7 0 20 18 29 40 16 40 16 40
69 40 54 0 54 0 70 -40 8 -22 20 -40 26 -40 6 0 11 3 11 8 0 17 -99 247 -107
249 -5 2 -32 -55 -60 -127z m81 41 c22 -68 21 -71 -24 -71 -22 0 -40 2 -40 4
0 7 43 116 45 116 2 0 10 -22 19 -49z"/>
<path d="M5154 431 c-66 -40 -73 -163 -13 -220 33 -31 114 -29 153 3 26 20 30
31 34 88 5 75 -5 101 -51 128 -40 25 -83 25 -123 1z m124 -31 c45 -43 37 -155
-13 -178 -38 -17 -80 -15 -106 7 -34 27 -40 125 -9 164 17 22 30 27 64 27 28
0 49 -7 64 -20z"/>
<path d="M1490 315 c0 -77 4 -125 10 -125 6 0 10 23 10 50 0 48 1 50 29 50 70
0 111 31 111 84 0 45 -32 66 -100 66 l-60 0 0 -125z m111 95 c27 -15 25 -64
-3 -84 -12 -9 -37 -16 -55 -16 l-33 0 0 55 0 55 36 0 c19 0 44 -5 55 -10z"/>
<path d="M1720 315 c0 -77 4 -125 10 -125 6 0 10 25 10 56 l0 55 31 -3 c26 -2
36 -12 59 -53 15 -27 36 -52 45 -54 16 -3 15 2 -5 35 -13 22 -28 47 -34 56 -8
13 -5 21 12 35 32 27 37 64 12 96 -19 24 -28 27 -81 27 l-59 0 0 -125z m122
80 c8 -19 8 -31 0 -50 -10 -21 -18 -25 -57 -25 l-45 0 0 50 0 50 45 0 c39 0
47 -4 57 -25z"/>
<path d="M2030 434 c0 -3 19 -59 42 -125 47 -133 61 -144 88 -69 9 25 19 52
23 60 14 36 47 131 47 135 0 3 -6 5 -14 5 -8 0 -26 -37 -46 -97 -18 -54 -35
-102 -38 -107 -3 -5 -16 22 -29 60 -13 38 -28 78 -33 89 -4 11 -11 28 -14 38
-5 15 -26 25 -26 11z"/>
<path d="M2490 430 c0 -5 18 -10 40 -10 l40 0 0 -115 c0 -96 3 -115 15 -115
12 0 15 19 15 115 l0 115 40 0 c22 0 40 5 40 10 0 6 -38 10 -95 10 -57 0 -95
-4 -95 -10z"/>
<path d="M2730 315 l0 -125 70 0 c40 0 70 4 70 10 0 6 -25 10 -55 10 l-55 0 0
50 0 50 50 0 c28 0 50 5 50 10 0 6 -22 10 -50 10 l-50 0 0 45 0 45 55 0 c30 0
55 5 55 10 0 6 -30 10 -70 10 l-70 0 0 -125z"/>
<path d="M3150 315 c0 -110 2 -125 17 -125 14 0 15 12 10 107 -4 73 -3 103 4
96 6 -6 39 -53 73 -104 88 -133 96 -131 96 25 0 156 -18 171 -22 19 l-3 -108
-70 107 c-96 147 -105 146 -105 -17z"/>
<path d="M3410 413 c29 -95 80 -218 91 -221 9 -2 24 25 43 75 15 43 36 99 46
126 16 40 17 47 4 47 -8 0 -16 -6 -19 -12 -2 -7 -19 -55 -38 -106 l-34 -94
-17 49 c-51 138 -62 163 -73 163 -8 0 -9 -8 -3 -27z"/>
<path d="M3660 315 l0 -125 70 0 c40 0 70 4 70 10 0 6 -27 10 -60 10 l-60 0 0
50 0 50 55 0 c30 0 55 5 55 10 0 6 -25 10 -55 10 l-55 0 0 45 0 45 60 0 c33 0
60 4 60 10 0 6 -30 10 -70 10 l-70 0 0 -125z"/>
<path d="M4046 431 c5 -5 25 -11 44 -13 l35 -3 3 -112 c4 -150 22 -148 22 2
l0 115 40 0 c22 0 40 5 40 10 0 6 -39 10 -97 10 -60 0 -93 -4 -87 -9z"/>
<path d="M4870 430 c0 -5 18 -10 40 -10 l40 0 0 -115 c0 -96 3 -115 15 -115
12 0 15 19 15 115 l0 115 40 0 c22 0 40 5 40 10 0 6 -38 10 -95 10 -57 0 -95
-4 -95 -10z"/>
<path d="M5400 315 c0 -104 2 -125 15 -125 12 0 15 13 15 55 0 53 1 55 28 55
23 0 33 -10 60 -55 18 -30 40 -55 47 -55 11 0 6 14 -15 49 -35 57 -36 62 -10
79 14 9 20 23 20 51 0 57 -19 71 -96 71 l-64 0 0 -125z m124 89 c38 -37 7 -84
-55 -84 l-39 0 0 50 0 50 39 0 c23 0 46 -7 55 -16z"/>
</g>
</svg>
