<?xml version="1.0" standalone="no"?>
<!DOCTYPE svg PUBLIC "-//W3C//DTD SVG 20010904//EN"
 "http://www.w3.org/TR/2001/REC-SVG-20010904/DTD/svg10.dtd">
<svg version="1.0" xmlns="http://www.w3.org/2000/svg"
 width="3160.000000pt" height="1954.000000pt" viewBox="0 0 3160.000000 1954.000000"
 preserveAspectRatio="xMidYMid meet">

<g transform="translate(0.000000,1954.000000) scale(0.100000,-0.100000)"
fill="#000000" stroke="none">
<path d="M4810 10765 l0 -4685 135 0 135 0 0 4685 0 4685 -135 0 -135 0 0
-4685z"/>
<path d="M9840 10765 l0 -4685 1200 0 1200 0 0 135 0 135 -1065 0 -1065 0 0
4415 0 4415 1065 0 1065 0 0 135 0 135 -1200 0 -1200 0 0 -4685z"/>
<path d="M15190 10765 l0 -4685 2965 0 2965 0 0 4685 0 4685 -140 0 -140 0 0
-4550 0 -4550 -2687 2 -2688 3 -3 4548 -2 4547 -135 0 -135 0 0 -4685z"/>
<path d="M22280 15315 l0 -135 2255 0 2255 0 0 135 0 135 -2255 0 -2255 0 0
-135z"/>
<path d="M7100 10765 l0 -1745 355 0 355 0 0 1745 0 1745 -355 0 -355 0 0
-1745z"/>
<path d="M11350 12210 l0 -300 470 0 470 0 0 -1445 0 -1445 355 0 355 0 0
1445 0 1445 475 0 475 0 0 300 0 300 -1300 0 -1300 0 0 -300z"/>
<path d="M17715 12498 c-11 -30 -1105 -3467 -1105 -3472 0 -3 166 -6 369 -6
343 0 370 1 375 18 3 9 57 211 121 447 64 237 120 433 124 438 4 4 247 6 541
5 l533 -3 122 -450 121 -450 386 -3 387 -2 -15 42 c-8 24 -257 808 -553 1743
l-539 1700 -431 3 c-340 2 -433 0 -436 -10z m434 -575 c5 -21 53 -207 106
-413 53 -206 134 -517 181 -691 46 -174 84 -319 84 -322 0 -4 -174 -7 -386 -7
-362 0 -385 1 -380 18 67 235 262 997 336 1315 18 75 36 137 41 137 4 0 13
-17 18 -37z"/>
<path d="M23123 12503 c2 -5 238 -505 525 -1113 l522 -1106 0 -632 0 -632 365
0 365 0 0 625 0 626 511 1082 c281 595 520 1099 530 1120 l20 37 -387 -2 -386
-3 -208 -520 c-114 -286 -256 -643 -315 -793 -100 -254 -118 -292 -132 -279
-2 3 -65 167 -139 364 -74 197 -214 555 -311 796 l-176 437 -394 0 c-217 0
-392 -3 -390 -7z"/>
<path d="M22280 6215 l0 -135 2255 0 2255 0 0 135 0 135 -2255 0 -2255 0 0
-135z"/>
<path d="M16763 5080 c-129 -26 -185 -114 -152 -235 17 -62 72 -106 182 -149
53 -21 110 -50 127 -66 25 -24 30 -35 30 -77 0 -41 -5 -54 -28 -76 -33 -31
-79 -47 -137 -47 -40 0 -145 21 -177 35 -16 6 -18 1 -18 -33 0 -36 3 -41 33
-51 52 -19 176 -25 239 -12 67 14 114 43 146 91 21 30 23 44 20 107 -5 106
-27 125 -245 218 -65 27 -98 68 -98 120 0 35 6 50 28 72 24 24 36 28 102 31
50 3 89 -1 121 -12 54 -18 58 -17 72 24 11 30 11 30 -41 44 -71 20 -153 26
-204 16z"/>
<path d="M18214 5080 c-155 -23 -256 -121 -285 -276 -35 -187 48 -370 192
-420 65 -23 254 -24 334 -1 l50 13 3 172 2 172 -120 0 -120 0 0 -35 0 -34 78
-3 77 -3 3 -106 c3 -124 9 -117 -108 -126 -134 -10 -233 35 -282 131 -33 63
-37 211 -8 288 25 67 87 128 148 146 54 17 169 15 228 -3 27 -8 52 -15 55 -15
7 0 29 46 29 60 0 27 -188 54 -276 40z"/>
<path d="M20003 5080 c-85 -18 -160 -75 -198 -150 -65 -129 -54 -343 23 -451
100 -139 353 -158 480 -36 113 108 136 353 48 499 -35 59 -99 112 -154 128
-54 15 -151 20 -199 10z m198 -91 c89 -44 123 -129 117 -287 -3 -84 -9 -116
-25 -148 -56 -106 -163 -147 -290 -109 -101 30 -153 125 -153 280 0 170 58
259 183 285 54 10 123 2 168 -21z"/>
<path d="M10680 4725 l0 -355 40 0 40 0 0 139 0 138 99 5 c116 6 177 30 225
91 29 37 31 44 31 126 0 80 -2 91 -27 123 -48 64 -134 87 -315 88 l-93 0 0
-355z m287 262 c54 -28 68 -53 68 -122 0 -57 -3 -67 -29 -94 -37 -38 -80 -51
-173 -51 l-73 0 0 146 0 147 89 -6 c49 -3 102 -12 118 -20z"/>
<path d="M11230 4726 l0 -356 40 0 40 0 0 150 0 151 73 -3 72 -3 77 -130 c104
-176 95 -167 146 -163 l42 3 -93 155 -94 156 48 27 c63 35 89 84 89 168 0 85
-27 131 -97 165 -47 23 -68 27 -198 31 l-145 6 0 -357z m299 260 c83 -43 82
-189 -2 -232 -20 -11 -66 -19 -124 -22 l-93 -5 0 143 0 143 94 -6 c56 -3 106
-12 125 -21z"/>
<path d="M11810 4725 l0 -355 40 0 40 0 0 355 0 355 -40 0 -40 0 0 -355z"/>
<path d="M12026 4953 c25 -71 82 -230 126 -355 l82 -228 40 0 41 0 99 278 c55
152 112 312 128 355 l28 77 -44 0 -44 0 -52 -147 c-29 -82 -76 -217 -105 -302
-41 -117 -54 -148 -59 -130 -4 13 -50 149 -104 302 l-97 277 -42 0 -43 0 46
-127z"/>
<path d="M12759 5053 c-10 -27 -205 -523 -248 -631 l-21 -53 42 3 42 3 44 113
44 113 141 -3 141 -3 44 -112 44 -113 39 0 c21 0 39 3 39 8 0 4 -61 162 -135
351 -74 189 -135 346 -135 348 0 1 -16 3 -35 3 -30 0 -37 -5 -46 -27z m156
-373 c4 -6 -37 -10 -109 -10 -64 0 -116 1 -116 3 0 2 17 48 39 103 21 54 46
123 56 153 l17 54 54 -147 c29 -81 56 -151 59 -156z"/>
<path d="M13090 5040 l0 -40 110 0 110 0 0 -315 0 -315 40 0 40 0 0 315 0 314
113 3 112 3 0 35 0 35 -262 3 -263 2 0 -40z"/>
<path d="M13730 4725 l0 -355 195 0 195 0 0 35 0 35 -155 0 -155 0 0 130 0
130 145 0 145 0 0 35 0 35 -145 0 -145 0 0 115 0 115 155 0 155 0 0 40 0 40
-195 0 -195 0 0 -355z"/>
<path d="M14570 4725 l0 -355 40 0 40 0 0 355 0 355 -40 0 -40 0 0 -355z"/>
<path d="M14810 4725 l0 -355 35 0 36 0 -3 295 c-2 162 -1 295 2 295 3 -1 91
-133 195 -295 l190 -295 48 0 47 0 0 356 0 355 -37 -3 -38 -3 0 -292 c1 -161
0 -293 -1 -293 -1 0 -89 133 -195 295 l-192 295 -44 0 -43 0 0 -355z"/>
<path d="M15486 4953 c25 -71 82 -230 126 -355 l82 -228 40 0 41 0 99 278 c55
152 112 312 128 355 l28 77 -44 0 -44 0 -52 -147 c-29 -82 -76 -217 -105 -302
-41 -117 -54 -148 -59 -130 -4 13 -50 149 -104 302 l-97 277 -42 0 -43 0 46
-127z"/>
<path d="M16110 4725 l0 -355 195 0 195 0 0 35 0 35 -155 0 -155 0 0 130 0
130 145 0 145 0 0 35 0 35 -145 0 -145 0 0 115 0 115 155 0 155 0 0 40 0 40
-195 0 -195 0 0 -355z"/>
<path d="M17090 5040 l0 -40 110 0 110 0 0 -315 0 -315 40 0 40 0 0 315 0 314
113 3 112 3 0 35 0 35 -262 3 -263 2 0 -40z"/>
<path d="M17730 4725 l0 -355 40 0 40 0 0 355 0 355 -40 0 -40 0 0 -355z"/>
<path d="M18869 5053 c-10 -27 -205 -523 -248 -631 l-21 -53 42 3 42 3 44 113
44 113 141 -3 141 -3 44 -112 44 -113 39 0 c21 0 39 3 39 8 0 4 -61 162 -135
351 -74 189 -135 346 -135 348 0 1 -16 3 -35 3 -30 0 -37 -5 -46 -27z m156
-373 c4 -6 -37 -10 -109 -10 -64 0 -116 1 -116 3 0 2 17 48 39 103 21 54 46
123 56 153 l17 54 54 -147 c29 -81 56 -151 59 -156z"/>
<path d="M19200 5040 l0 -40 110 0 110 0 0 -315 0 -315 40 0 40 0 0 315 0 314
113 3 112 3 0 35 0 35 -262 3 -263 2 0 -40z"/>
<path d="M20510 4726 l0 -356 40 0 40 0 0 150 0 151 73 -3 72 -3 77 -130 c104
-176 95 -167 146 -163 l42 3 -93 155 -94 156 48 27 c63 35 89 84 89 168 0 85
-27 131 -97 165 -47 23 -68 27 -198 31 l-145 6 0 -357z m299 260 c83 -43 82
-189 -2 -232 -20 -11 -66 -19 -124 -22 l-93 -5 0 143 0 143 94 -6 c56 -3 106
-12 125 -21z"/>
</g>
</svg>
