<svg id="Layer_1" data-name="Layer 1" xmlns="http://www.w3.org/2000/svg" xmlns:xlink="http://www.w3.org/1999/xlink" viewBox="0 0 1053.32 651.32"><defs><style>.cls-1{fill:none;}.cls-2{clip-path:url(#clip-path);}.cls-3{font-size:33px;font-family:OpenSansHebrew-Regular, Open Sans Hebrew;}</style><clipPath id="clip-path"><rect class="cls-1" x="1123.98" y="-725.8" width="1200" height="1200" transform="translate(3447.97 -251.61) rotate(-180)"/></clipPath></defs><g class="cls-2"><image width="5973" height="4480" transform="matrix(-0.27, 0, 0, 0.27, 2557.19, -725.8)" xlink:href="../../../../../../../Downloads/romain-dancre-doplSDELX7E-unsplash.jpg"/></g><text class="cls-3" transform="translate(352.55 505.76)">PRIVATE INVESTIGATOR</text><path d="M236.67,234.32H260.4v116.3H236.67Z"/><path d="M805.74,308.59l-35.09-74.27h26.18l11.22,27.78,9.62,25.65h.71c.48-1.07,1-2.2,1.43-3.38s1-2.5,1.6-3.92q4.27-10.86,7.12-18.35l11.22-27.78h25.47l-35.08,74.27v42h-24.4Z"/><rect x="160.24" y="136.4" width="9" height="312.14"/><polygon points="407.88 448.54 327.84 448.54 327.84 136.4 407.88 136.4 407.88 145.41 336.84 145.41 336.84 439.53 407.88 439.53 407.88 448.54"/><polygon points="703.91 448.54 506.23 448.54 506.23 136.4 515.35 136.4 515.35 439.54 694.79 439.54 694.79 136.4 703.91 136.4 703.91 448.54"/><rect x="742.79" y="136.4" width="150.29" height="9"/><rect x="742.79" y="439.54" width="150.29" height="9"/><path d="M655.25,347.74l-36-113.42H590.66L555.05,346.11l-1.44,4.51h24.67l.43-1.59h0l7.73-28.63h36l7.16,26.52,1,3.7h25.58Zm-63.71-46L594.7,290q4-14.58,9.31-37.24h.71l3.33,13q4.22,16.51,6.33,24.25l3.16,11.77Z"/><polygon points="378.18 234.32 378.18 254.24 409.71 254.24 409.71 346.06 409.71 347.44 409.71 350.62 433.43 350.62 433.43 347.44 433.44 347.44 433.44 254.24 465.15 254.24 465.15 234.32 378.18 234.32"/></svg>